<?xml version="1.0" encoding="utf-8"?>
<svg viewBox="0 -2.393 401.386 83.892" xmlns="http://www.w3.org/2000/svg">
  <defs>
    <linearGradient gradientUnits="userSpaceOnUse" x1="112.002" y1="63.3" x2="112.002" y2="90.624" id="gradient-0" gradientTransform="matrix(2.78126, 0, 0, 2.78126, -273.991879, -176.033352)">
      <stop offset="0" style="stop-color: rgba(1, 179, 228, 1)"/>
      <stop offset="1" style="stop-color: rgb(144, 206, 161);"/>
    </linearGradient>
    <linearGradient gradientUnits="userSpaceOnUse" x1="139.947" y1="70.741" x2="139.947" y2="90.624" id="gradient-1" gradientTransform="matrix(2.225206, 0, 0, 2.225206, -232.20256, -125.641441)">
      <stop offset="0" style="stop-color: rgba(1, 179, 228, 1)"/>
      <stop offset="1" style="stop-color: rgb(144, 206, 161);"/>
    </linearGradient>
    <linearGradient gradientUnits="userSpaceOnUse" x1="166.491" y1="70.741" x2="166.491" y2="91.015" id="gradient-2" gradientTransform="matrix(2.225206, 0, 0, 2.225206, -247.20256, -125.641441)">
      <stop offset="0" style="stop-color: rgba(1, 179, 228, 1)"/>
      <stop offset="1" style="stop-color: rgb(144, 206, 161);"/>
    </linearGradient>
    <radialGradient gradientUnits="userSpaceOnUse" cx="194.827" cy="74.305" r="14.665" id="gradient-4" gradientTransform="matrix(2.225206, 0, 0, 2.225206, -254.202591, -125.641464)">
      <stop offset="0" style="stop-color: rgb(77, 77, 77);"/>
      <stop offset="1" style="stop-color: rgba(0, 0, 0, 1)"/>
    </radialGradient>
  </defs>
  <path d="M 35.697 50.375 L 35.697 30.928 C 40.149 30.928 42.377 29.226 42.377 25.822 C 42.377 22.706 40.674 21.149 37.27 21.149 C 33.83 21.149 32.112 23.285 32.112 27.56 L 32.112 76.016 L 10.055 76.016 L 10.055 29.84 C 10.055 25.061 10.534 21.142 11.493 18.082 C 12.452 15.023 14.094 12.172 16.411 9.526 C 19.016 6.594 22.276 4.275 26.19 2.573 C 30.1 0.87 34.139 0.02 38.302 0.02 C 45.837 0.02 52.163 2.555 57.288 7.624 C 62.412 12.695 64.974 18.977 64.974 26.474 C 64.974 33.752 62.675 39.656 58.078 44.184 C 53.874 48.347 47.539 50.43 39.063 50.43 L 35.697 50.375 Z" style="white-space: pre; paint-order: fill; fill: url(#gradient-0); fill-rule: nonzero;"/>
  <path d="M 91.095 32.25 L 91.095 49.636 C 89.965 48.997 88.937 48.679 88.009 48.679 C 85.054 48.679 83.576 50.94 83.576 55.459 L 83.576 76.016 L 67.321 76.016 L 67.321 52.328 C 67.321 46.071 69.03 41.08 72.45 37.357 C 75.871 33.634 80.432 31.772 86.14 31.772 C 87.415 31.772 89.068 31.932 91.095 32.25 Z" style="white-space: pre; paint-order: fill; fill: url(#gradient-1); fill-rule: nonzero;"/>
  <path d="M 123.686 31.772 C 129.83 31.772 135.094 33.981 139.485 38.401 C 143.875 42.818 146.069 48.114 146.069 54.284 C 146.069 60.544 143.846 65.875 139.398 70.279 C 134.95 74.683 129.583 76.886 123.294 76.886 C 117.008 76.886 111.632 74.676 107.17 70.257 C 102.709 65.84 100.479 60.515 100.479 54.284 C 100.479 47.94 102.709 42.602 107.17 38.269 C 111.632 33.937 117.137 31.772 123.686 31.772 Z M 123.252 47.809 C 121.514 47.809 120.037 48.439 118.819 49.7 C 117.602 50.96 116.992 52.502 116.992 54.329 C 116.992 56.125 117.609 57.66 118.842 58.935 C 120.072 60.21 121.543 60.849 123.252 60.849 C 124.99 60.849 126.476 60.21 127.707 58.935 C 128.937 57.66 129.554 56.125 129.554 54.329 C 129.554 52.502 128.946 50.96 127.729 49.7 C 126.512 48.439 125.019 47.809 123.252 47.809 Z" style="white-space: pre; paint-order: fill; fill: url(#gradient-2); fill-rule: nonzero;"/>
  <path d="M 211.96 0 L 179.218 79.404 L 146.697 0 L 172.558 0 L 179.439 23.443 L 187.031 0 L 211.96 0 Z" style="white-space: pre; stroke: rgb(187, 218, 85); stroke-width: 0px; fill: url(#gradient-4);"/>
  <path d="M 229.441 32.684 L 229.441 76.015 L 213.186 76.015 L 213.186 32.684 L 229.441 32.684 Z M 221.358 13.346 C 223.559 13.346 225.463 14.119 227.072 15.671 C 228.681 17.222 229.484 19.053 229.484 21.169 C 229.484 23.427 228.724 25.284 227.204 26.733 C 225.681 28.179 223.732 28.904 221.358 28.904 C 218.981 28.904 217.032 28.179 215.512 26.733 C 213.993 25.284 213.231 23.427 213.231 21.169 C 213.231 19.053 214.034 17.222 215.642 15.671 C 217.253 14.119 219.157 13.346 221.358 13.346 Z" style="fill: rgb(51, 51, 51); white-space: pre;"/>
  <path d="M 268.94 16.691 L 285.195 16.691 L 285.195 52.807 C 285.195 59.442 283.458 64.846 279.979 69.016 C 277.982 71.423 275.44 73.336 272.353 74.756 C 269.267 76.175 266.101 76.886 262.856 76.886 C 256.394 76.886 250.947 74.712 246.513 70.366 C 242.083 66.019 239.866 60.689 239.866 54.371 C 239.866 48.258 242.068 42.971 246.473 38.51 C 250.876 34.048 256.09 31.817 262.117 31.817 C 263.072 31.817 264.521 31.903 266.463 32.078 L 266.463 49.984 C 265.129 48.939 263.797 48.419 262.466 48.419 C 260.783 48.419 259.342 49.035 258.14 50.265 C 256.938 51.497 256.336 52.983 256.336 54.719 C 256.336 56.4 256.959 57.839 258.205 59.045 C 259.452 60.247 260.945 60.849 262.683 60.849 C 266.855 60.849 268.94 57.965 268.94 52.2 L 268.94 16.691 Z" style="fill: rgb(51, 51, 51); white-space: pre;"/>
  <path d="M 338.146 56.98 L 313.501 56.98 C 313.126 55.734 312.939 54.59 312.939 53.544 C 312.939 52.096 313.199 50.678 313.719 49.287 L 321.976 49.287 C 321.396 46.071 319.587 44.462 316.545 44.462 C 314.517 44.462 312.866 45.323 311.589 47.048 C 310.315 48.772 309.677 50.983 309.677 53.677 C 309.677 56.486 310.295 58.76 311.525 60.5 C 312.757 62.237 314.371 63.107 316.369 63.107 C 317.993 63.107 319.557 62.295 321.064 60.674 L 330.321 71.799 C 326.005 75.19 321.208 76.886 315.935 76.886 C 309.503 76.886 304.1 74.726 299.725 70.407 C 295.35 66.092 293.163 60.747 293.163 54.371 C 293.163 48.028 295.372 42.666 299.79 38.292 C 304.209 33.917 309.633 31.73 316.067 31.73 C 322.353 31.73 327.634 33.866 331.908 38.141 C 336.183 42.412 338.319 47.678 338.319 53.937 C 338.319 54.576 338.261 55.589 338.146 56.98 Z" style="fill: rgb(51, 51, 51); white-space: pre;"/>
  <path d="M 370.463 31.772 C 376.606 31.772 381.871 33.981 386.261 38.401 C 390.652 42.818 392.845 48.114 392.845 54.285 C 392.845 60.543 390.62 65.875 386.172 70.279 C 381.724 74.683 376.357 76.886 370.07 76.886 C 363.784 76.886 358.409 74.677 353.948 70.256 C 349.486 65.84 347.253 60.515 347.253 54.285 C 347.253 47.94 349.486 42.601 353.948 38.27 C 358.409 33.936 363.912 31.772 370.463 31.772 Z M 370.028 47.81 C 368.291 47.81 366.81 48.44 365.595 49.7 C 364.377 50.96 363.768 52.502 363.768 54.329 C 363.768 56.124 364.386 57.659 365.615 58.936 C 366.847 60.21 368.317 60.849 370.028 60.849 C 371.766 60.849 373.252 60.21 374.484 58.936 C 375.713 57.659 376.33 56.124 376.33 54.329 C 376.33 52.502 375.72 50.96 374.503 49.7 C 373.286 48.44 371.796 47.81 370.028 47.81 Z" style="white-space: pre; fill: rgb(51, 51, 51);"/>
</svg>