<svg width="200" height="300" viewBox="0 0 200 300" fill="none" xmlns="http://www.w3.org/2000/svg">
<rect width="200" height="300" fill="#D9D9D9"/>
<rect x="43" y="95" width="110" height="110" rx="20" fill="#AFAFAF"/>
<rect x="99.7817" y="73.4142" width="108" height="108" rx="19" transform="rotate(45 99.7817 73.4142)" fill="#AFAFAF" stroke="#D9D9D9" stroke-width="2"/>
<path d="M100.642 162.355V142.908C105.094 142.908 107.322 141.206 107.322 137.802C107.322 134.686 105.619 133.129 102.215 133.129C98.775 133.129 97.057 135.265 97.057 139.54V187.996H75V141.82C75 137.041 75.479 133.122 76.438 130.062C77.397 127.003 79.039 124.152 81.356 121.506C83.961 118.574 87.221 116.255 91.135 114.553C95.045 112.85 99.084 112 103.247 112C110.782 112 117.108 114.535 122.233 119.604C127.357 124.675 129.919 130.957 129.919 138.454C129.919 145.732 127.62 151.636 123.023 156.164C118.819 160.327 112.484 162.41 104.008 162.41L100.642 162.355Z" fill="#D9D9D9"/>
</svg>
