<svg width="200" height="300" viewBox="0 0 200 300" fill="none" xmlns="http://www.w3.org/2000/svg">
<rect width="200" height="300" fill="#D9D9D9"/>
<path fill-rule="evenodd" clip-rule="evenodd" d="M117.458 151.904C116.287 150.732 116.287 148.832 117.458 147.661L144.329 120.79C145.501 119.618 145.501 117.719 144.329 116.547L133.015 105.234C131.844 104.062 129.944 104.062 128.773 105.234L101.902 132.105C100.73 133.276 98.8307 133.276 97.6591 132.105L70.7895 105.235C69.6179 104.063 67.7184 104.063 66.5468 105.235L55.2331 116.549C54.0615 117.72 54.0615 119.62 55.2331 120.791L82.1028 147.661C83.2743 148.832 83.2743 150.732 82.1028 151.904L55.2336 178.773C54.062 179.944 54.062 181.844 55.2336 183.015L66.5473 194.329C67.7189 195.501 69.6184 195.501 70.7899 194.329L97.6591 167.46C98.8307 166.288 100.73 166.288 101.902 167.46L128.772 194.33C129.944 195.502 131.843 195.502 133.015 194.33L144.329 183.017C145.5 181.845 145.5 179.946 144.329 178.774L117.458 151.904Z" fill="#AFAFAF"/>
</svg>
