<svg width="156" height="156" viewBox="0 0 156 156" fill="none" xmlns="http://www.w3.org/2000/svg">
<rect x="21" y="23" width="110" height="110" rx="20" fill="#323232"/>
<rect x="77.7817" y="1.41421" width="108" height="108" rx="19" transform="rotate(45 77.7817 1.41421)" fill="#323232" stroke="white" stroke-width="2"/>
<path d="M78.642 90.355V70.908C83.094 70.908 85.322 69.206 85.322 65.802C85.322 62.686 83.619 61.129 80.215 61.129C76.775 61.129 75.057 63.265 75.057 67.54V115.996H53V69.82C53 65.041 53.479 61.122 54.438 58.062C55.397 55.003 57.039 52.152 59.356 49.506C61.961 46.574 65.221 44.255 69.135 42.553C73.045 40.85 77.084 40 81.247 40C88.782 40 95.108 42.535 100.233 47.604C105.357 52.675 107.919 58.957 107.919 66.454C107.919 73.732 105.62 79.636 101.023 84.164C96.819 88.327 90.484 90.41 82.008 90.41L78.642 90.355Z" fill="url(#paint0_linear_39_18)"/>
<defs>
<linearGradient id="paint0_linear_39_18" x1="80.3206" y1="39.924" x2="80.3206" y2="115.885" gradientUnits="userSpaceOnUse">
<stop stop-color="#01B3E4"/>
<stop offset="1" stop-color="#90CEA1"/>
</linearGradient>
</defs>
</svg>
