<svg width="114" height="114" viewBox="0 0 114 114" fill="none" xmlns="http://www.w3.org/2000/svg">
<rect x="1.99988" y="2" width="110" height="110" fill="white"/>
<path fill-rule="evenodd" clip-rule="evenodd" d="M70.0037 58.6898C68.8321 57.5183 68.8321 55.6188 70.0037 54.4472L88.3883 36.0625C89.5599 34.891 89.5599 32.9915 88.3883 31.8199L81.3173 24.7488C80.1457 23.5772 78.2462 23.5772 77.0746 24.7488L58.6899 43.1335C57.5184 44.3051 55.6189 44.3051 54.4473 43.1335L36.0625 24.7487C34.8909 23.5771 32.9914 23.5771 31.8198 24.7487L24.7488 31.8197C23.5772 32.9913 23.5772 34.8908 24.7488 36.0624L43.1336 54.4472C44.3052 55.6188 44.3052 57.5183 43.1336 58.6898L24.7487 77.0747C23.5771 78.2463 23.5771 80.1458 24.7487 81.3174L31.8198 88.3884C32.9914 89.56 34.8909 89.56 36.0624 88.3884L54.4473 70.0036C55.6189 68.832 57.5184 68.832 58.6899 70.0036L77.0747 88.3883C78.2462 89.5598 80.1457 89.5598 81.3173 88.3883L88.3884 81.3172C89.5599 80.1456 89.5599 78.2461 88.3884 77.0746L70.0037 58.6898Z" fill="#AFAFAF"/>
</svg>
